<?xml version="1.0" encoding="iso-8859-1"?>
<!-- Generator: Adobe Illustrator 18.0.0, SVG Export Plug-In . SVG Version: 6.00 Build 0)  -->
<!DOCTYPE svg PUBLIC "-//W3C//DTD SVG 1.1//EN" "http://www.w3.org/Graphics/SVG/1.1/DTD/svg11.dtd">
<svg version="1.1" id="Capa_1" xmlns="http://www.w3.org/2000/svg" xmlns:xlink="http://www.w3.org/1999/xlink" x="0px" y="0px"
	 viewBox="0 0 297 297" style="enable-background:new 0 0 297 297;" xml:space="preserve">
<path d="M287.419,192.464h-14.57c1.161-13.792,2.184-28.36,2.833-42.58h11.736c5.291,0,9.581-4.29,9.581-9.581
	s-4.29-9.581-9.581-9.581h-11.102c0.271-14.334,0.013-27.713-1.051-38.818c-0.18-1.879-0.43-3.739-0.72-5.584
	c0.409-0.296,0.805-0.617,1.172-0.985L291.153,69.9c3.741-3.742,3.741-9.808,0-13.549c-3.743-3.741-9.809-3.741-13.549,0
	l-9.006,9.007c-3.346-7.872-7.797-15.023-13.215-21.076c-11.92-13.316-27.951-20.649-45.14-20.649
	c23.416,0,33.369,37.015,34.778,68.712c2.053,46.169-2.429,132.312-4.111,161.861H223.63c1.603-28.286,6.174-115.824,4.162-161.096
	c-1.546-34.778-12.084-52.232-17.55-52.232c-5.466,0-16.005,17.455-17.55,52.232c-2.013,45.279,2.559,132.812,4.161,161.096h-17.279
	c-1.682-29.549-6.163-115.693-4.111-161.861c1.409-31.698,11.362-68.712,34.779-68.712c-17.189,0-33.22,7.333-45.139,20.649
	c-5.419,6.053-9.87,13.203-13.216,21.076l-9.006-9.007c-3.742-3.741-9.807-3.741-13.549,0c-3.742,3.742-3.742,9.808,0,13.549
	l15.436,15.436c0.368,0.368,0.763,0.688,1.172,0.984c-0.29,1.846-0.54,3.706-0.72,5.585c-1.065,11.105-1.323,24.483-1.051,38.818
	h-11.102c-5.291,0-9.581,4.29-9.581,9.581s4.29,9.581,9.581,9.581H144.8c0.65,14.22,1.673,28.789,2.833,42.58h-14.57
	c-5.291,0-9.581,4.29-9.581,9.581c0,5.291,4.29,9.581,9.581,9.581H148.5c0.292,0,0.58-0.018,0.866-0.044
	c1.722,17.794,3.49,33.016,4.665,42.624h-40.335c3.383-20.021,9.5-61.844,6.174-85.693c-3.289-23.577-25.87-40.691-53.693-40.691
	c12.689,0,20.904,15.524,21.977,41.526c0.969,23.488-0.894,65.573-1.869,84.858H69.013c0.941-18.618,2.854-61.288,1.912-84.147
	c-0.481-11.653-2.84-19.631-4.747-23.299c-1.907,3.668-4.266,11.646-4.747,23.299c-0.944,22.866,0.969,65.53,1.911,84.147H46.069
	c-0.975-19.285-2.838-61.371-1.869-84.858c1.073-26.003,9.289-41.526,21.977-41.526c-27.824,0-50.405,17.113-53.693,40.691
	c-3.326,23.849,2.791,65.672,6.174,85.693H9.581c-5.291,0-9.581,4.29-9.581,9.581s4.29,9.581,9.581,9.581h262.403
	c5.291,0,9.581-4.29,9.581-9.581s-4.29-9.581-9.581-9.581h-5.531c1.175-9.608,2.943-24.83,4.665-42.624
	c0.286,0.026,0.574,0.044,0.866,0.044h15.436c5.291,0,9.581-4.29,9.581-9.581C297,196.754,292.71,192.464,287.419,192.464z"/>
<g>
</g>
<g>
</g>
<g>
</g>
<g>
</g>
<g>
</g>
<g>
</g>
<g>
</g>
<g>
</g>
<g>
</g>
<g>
</g>
<g>
</g>
<g>
</g>
<g>
</g>
<g>
</g>
<g>
</g>
</svg>
