<?xml version="1.0" encoding="iso-8859-1"?>
<!-- Generator: Adobe Illustrator 18.0.0, SVG Export Plug-In . SVG Version: 6.00 Build 0)  -->
<!DOCTYPE svg PUBLIC "-//W3C//DTD SVG 1.1//EN" "http://www.w3.org/Graphics/SVG/1.1/DTD/svg11.dtd">
<svg version="1.1" id="Capa_1" xmlns="http://www.w3.org/2000/svg" xmlns:xlink="http://www.w3.org/1999/xlink" x="0px" y="0px"
	 viewBox="0 0 297 297" style="enable-background:new 0 0 297 297;" xml:space="preserve">
<g>
	<path d="M120.226,68.019c-2.75,0-5,2.25-5,5v14.404c0,2.75,2.25,5,5,5h56.549c2.75,0,5-2.25,5-5V73.019c0-2.75-2.25-5-5-5H120.226z
		"/>
	<path d="M194.192,104.884h-91.385c-14.888,0-27,12.112-27,27V270c0,14.888,12.112,27,27,27h91.385c14.888,0,27-12.112,27-27
		V131.885C221.192,116.996,209.081,104.884,194.192,104.884z M193.419,177.188l-2.228,2.006c-2.122,1.911-3.689,5.805-3.481,8.653
		c0,0,0.624,8.569-4.271,14.204c-25.379,29.212-70.923,31.075-70.923,31.075c-2.853,0.117-3.141-0.915-0.64-2.293
		c0,0,5.926-3.273,14.33-11.215c-18.045-18.764-17.41-44.172-17.373-45.259c0.114-3.357,2.868-6.019,6.227-6.019
		c7.314,0,12.658,3.589,16.141,7.109c5.239-9.189-1.046-24.076-1.123-24.252c-0.9-2.031-0.649-4.388,0.658-6.185
		c1.307-1.798,3.475-2.762,5.681-2.534c0.818,0.084,20.137,2.228,30.146,15.512c3.6,4.777,5.536,10.284,5.805,16.436
		c1.583-0.003,2.573,0.133,2.573,0.133c2.828,0.395,6.879-0.846,9.001-2.757l2.556-2.301c2.122-1.911,5.416-1.745,7.319,0.369
		C195.72,171.984,195.541,175.277,193.419,177.188z"/>
	<path d="M144.861,157.387c1.954,10.042,1.907,24.401-10.853,32.753c-1.487,0.976-3.319,1.266-5.037,0.803
		c-1.716-0.465-3.153-1.639-3.948-3.229c-0.008-0.014-1.006-1.893-2.853-3.689c1.319,7.424,4.598,17.985,12.667,26.585
		c5.796-6.651,12.095-15.158,18.15-25.833c1.865-3.287,4.301-5.54,6.868-7.087c0.35-4.813-0.708-8.833-3.246-12.201
		C153.622,161.523,149.032,158.984,144.861,157.387z"/>
	<path d="M114.231,55.039h68.538c5.735,0,10.385-4.65,10.385-10.385V10.384C193.154,4.65,188.504,0,182.769,0h-68.538
		c-5.735,0-10.385,4.65-10.385,10.384v34.269C103.846,50.389,108.496,55.039,114.231,55.039z"/>
</g>
<g>
</g>
<g>
</g>
<g>
</g>
<g>
</g>
<g>
</g>
<g>
</g>
<g>
</g>
<g>
</g>
<g>
</g>
<g>
</g>
<g>
</g>
<g>
</g>
<g>
</g>
<g>
</g>
<g>
</g>
</svg>
