<?xml version="1.0" encoding="iso-8859-1"?>
<!-- Generator: Adobe Illustrator 18.0.0, SVG Export Plug-In . SVG Version: 6.00 Build 0)  -->
<!DOCTYPE svg PUBLIC "-//W3C//DTD SVG 1.1//EN" "http://www.w3.org/Graphics/SVG/1.1/DTD/svg11.dtd">
<svg version="1.1" id="Capa_1" xmlns="http://www.w3.org/2000/svg" xmlns:xlink="http://www.w3.org/1999/xlink" x="0px" y="0px"
	 viewBox="0 0 297 297" style="enable-background:new 0 0 297 297;" xml:space="preserve">
<g>
	<path d="M102.974,115.149h33.767c2.75,0,5-2.25,5-5V83.158c0-2.75-2.25-5-5-5h-25.663c-2.75,0-5.271,1.059-5.603,2.353
		c0,0,0,0-0.301,1.21c-2.758,11.07-6.226,28.524-6.226,28.524C98.412,112.942,100.224,115.149,102.974,115.149z"/>
	<path d="M160.259,115.149h33.766c2.75,0,4.562-2.207,4.026-4.904c0,0-3.467-17.454-6.226-28.524c-0.301-1.21-0.301-1.21-0.301-1.21
		c-0.331-1.294-2.853-2.353-5.603-2.353h-25.663c-2.75,0-5,2.25-5,5v26.991C155.259,112.899,157.509,115.149,160.259,115.149z"/>
	<path d="M141.741,59.639V9.982c-9.053,3.378-20.352,15.506-31.937,54.657h26.937C139.491,64.639,141.741,62.389,141.741,59.639z"/>
	<path d="M160.259,64.639h26.937c-11.585-39.151-22.884-51.279-31.937-54.657v49.658C155.259,62.389,157.509,64.639,160.259,64.639z
		"/>
	<path d="M292.699,149.668l-59.504-39.669c-1.599-1.066-3.466-1.621-5.359-1.621c-0.646,0-1.294,0.064-1.936,0.195
		c-2.524,0.518-4.737,2.023-6.146,4.18l-69.978,107.154h-2.552L77.246,112.754c-1.41-2.158-3.622-3.663-6.146-4.18
		c-0.641-0.13-1.289-0.195-1.934-0.195c-1.893,0-3.76,0.554-5.361,1.62L4.301,149.668c-3.541,2.36-5.119,6.76-3.886,10.832
		c1.233,4.073,4.988,6.858,9.242,6.858h32.122c2.418,8.701,7.326,23.633,15.909,39.313c16.268,29.717,38.698,49.083,65.222,56.452
		v14.238c0,5.333,4.324,9.656,9.656,9.656h31.866c5.333,0,9.656-4.324,9.656-9.656v-14.238
		c26.525-7.369,48.955-26.736,65.222-56.452c8.583-15.68,13.491-30.612,15.909-39.313h32.122c4.255,0,8.009-2.785,9.242-6.858
		C297.818,156.428,296.24,152.028,292.699,149.668z"/>
	<path d="M160.259,165.659h3.797c2.75,0,6.23-1.884,7.734-4.186l18.69-28.619c1.504-2.302,0.484-4.186-2.266-4.186h-27.955
		c-2.75,0-5,2.25-5,5v26.992C155.259,163.409,157.509,165.659,160.259,165.659z"/>
	<path d="M136.741,128.667h-27.955c-2.75,0-3.77,1.884-2.266,4.186l18.69,28.619c1.504,2.302,4.984,4.186,7.734,4.186h3.797
		c2.75,0,5-2.25,5-5v-26.992C141.741,130.917,139.491,128.667,136.741,128.667z"/>
</g>
<g>
</g>
<g>
</g>
<g>
</g>
<g>
</g>
<g>
</g>
<g>
</g>
<g>
</g>
<g>
</g>
<g>
</g>
<g>
</g>
<g>
</g>
<g>
</g>
<g>
</g>
<g>
</g>
<g>
</g>
</svg>
