<?xml version="1.0" encoding="iso-8859-1"?>
<!-- Generator: Adobe Illustrator 18.0.0, SVG Export Plug-In . SVG Version: 6.00 Build 0)  -->
<!DOCTYPE svg PUBLIC "-//W3C//DTD SVG 1.1//EN" "http://www.w3.org/Graphics/SVG/1.1/DTD/svg11.dtd">
<svg version="1.1" id="Capa_1" xmlns="http://www.w3.org/2000/svg" xmlns:xlink="http://www.w3.org/1999/xlink" x="0px" y="0px"
	 viewBox="0 0 297 297" style="enable-background:new 0 0 297 297;" xml:space="preserve">
<g>
	<path d="M228.485,0.069V62.71l43.092-43.093C260.04,8.836,245.064,1.694,228.485,0.069z"/>
	<path d="M214.885,0c-16.713,1.43-31.855,8.439-43.54,19.17l43.54,43.54V0z"/>
	<path d="M156.636,82.759h59.062l-53.502-53.502c-9.281,12.343-14.789,27.676-14.789,44.272
		C147.407,78.626,151.54,82.759,156.636,82.759z"/>
	<path d="M295.044,72.9c-0.134-16.122-5.475-31.018-14.403-43.112l-52.97,52.971h58.146c0.006,0,0.013,0,0.018,0
		c5.098,0,9.229-4.132,9.229-9.229C295.065,73.318,295.059,73.108,295.044,72.9z"/>
	<path d="M211.147,93.424h-12.985c-2.207,27.386-9.22,103.576-18.645,127.486c-13.747,34.871-34.81,50.421-68.296,50.421
		c-33.485,0-54.547-15.55-68.294-50.421C32.403,194.214,28.779,120.879,27.77,93.424H11.296c-2.619,0-5.117,1.097-6.89,3.025
		c-1.773,1.927-2.657,4.509-2.438,7.118l15.511,184.855c0.407,4.849,4.462,8.578,9.328,8.578h168.829
		c4.866,0,8.921-3.729,9.328-8.578l15.511-184.855c0.219-2.609-0.665-5.191-2.438-7.118
		C216.264,94.521,213.766,93.424,211.147,93.424z"/>
	<path d="M111.22,251.903c25.326,0,39.408-10.688,50.221-38.118c7.479-18.971,15.019-87.721,17.391-120.36H47.204
		c1.262,33.886,5.277,98.745,13.798,120.362C71.815,241.215,85.895,251.903,111.22,251.903z"/>
</g>
<g>
</g>
<g>
</g>
<g>
</g>
<g>
</g>
<g>
</g>
<g>
</g>
<g>
</g>
<g>
</g>
<g>
</g>
<g>
</g>
<g>
</g>
<g>
</g>
<g>
</g>
<g>
</g>
<g>
</g>
</svg>
