<?xml version="1.0" encoding="iso-8859-1"?>
<!-- Generator: Adobe Illustrator 18.0.0, SVG Export Plug-In . SVG Version: 6.00 Build 0)  -->
<!DOCTYPE svg PUBLIC "-//W3C//DTD SVG 1.1//EN" "http://www.w3.org/Graphics/SVG/1.1/DTD/svg11.dtd">
<svg version="1.1" id="Capa_1" xmlns="http://www.w3.org/2000/svg" xmlns:xlink="http://www.w3.org/1999/xlink" x="0px" y="0px"
	 viewBox="0 0 297 297" style="enable-background:new 0 0 297 297;" xml:space="preserve">
<g>
	<path d="M220.155,61.875c0-5.467-4.433-9.9-9.9-9.9H86.745c-5.467,0-9.9,4.433-9.9,9.9v10.704h143.31V61.875z"/>
	<path d="M210.61,142.869h53.389v-11.694c0-5.467-4.433-9.9-9.9-9.9h-53.13L210.61,142.869z"/>
	<path d="M185.596,86.839l9.545,21.38h47.74V96.525c0-5.467-4.433-9.9-9.9-9.9h-47.49C185.524,86.698,185.563,86.766,185.596,86.839
		z"/>
	<path d="M172.94,92.49c-1.592-3.568-5.133-5.865-9.04-5.865h-30.8c-3.907,0-7.447,2.297-9.04,5.865L62.461,230.467
		c-1.368,3.062-1.091,6.609,0.734,9.423c1.825,2.813,4.952,4.512,8.306,4.512H225.5c0.008,0,0.013,0,0.02,0
		c5.467,0,9.9-4.433,9.9-9.9c0-1.662-0.41-3.229-1.134-4.604L172.94,92.49z"/>
	<path d="M224.975,175.044H281.6v-9.219c0-5.467-4.433-9.9-9.9-9.9h-55.261L224.975,175.044z"/>
	<path d="M111.404,86.84c0.033-0.074,0.072-0.142,0.106-0.215h-47.49c-5.467,0-9.9,4.433-9.9,9.9v11.694h47.74L111.404,86.84z"/>
	<path d="M287.1,190.575h-55.192l14.891,33.354c1.625,3.268,2.481,6.912,2.481,10.574c0,3.777-0.89,7.349-2.465,10.523H287.1
		c5.467,0,9.9-4.433,9.9-9.9v-34.65C297,195.008,292.567,190.575,287.1,190.575z"/>
	<path d="M49.805,224.817l15.287-34.242H9.9c-5.467,0-9.9,4.433-9.9,9.9v34.65c0,5.467,4.433,9.9,9.9,9.9h40.302
		C47.074,238.714,46.888,231.344,49.805,224.817z"/>
	<path d="M80.561,155.925H25.3c-5.467,0-9.9,4.433-9.9,9.9v9.219h56.625L80.561,155.925z"/>
	<path d="M96.031,121.275h-53.13c-5.467,0-9.9,4.433-9.9,9.9v11.694H86.39L96.031,121.275z"/>
</g>
<g>
</g>
<g>
</g>
<g>
</g>
<g>
</g>
<g>
</g>
<g>
</g>
<g>
</g>
<g>
</g>
<g>
</g>
<g>
</g>
<g>
</g>
<g>
</g>
<g>
</g>
<g>
</g>
<g>
</g>
</svg>
