<?xml version="1.0" encoding="iso-8859-1"?>
<!-- Generator: Adobe Illustrator 18.0.0, SVG Export Plug-In . SVG Version: 6.00 Build 0)  -->
<!DOCTYPE svg PUBLIC "-//W3C//DTD SVG 1.1//EN" "http://www.w3.org/Graphics/SVG/1.1/DTD/svg11.dtd">
<svg version="1.1" id="Capa_1" xmlns="http://www.w3.org/2000/svg" xmlns:xlink="http://www.w3.org/1999/xlink" x="0px" y="0px"
	 viewBox="0 0 297 297" style="enable-background:new 0 0 297 297;" xml:space="preserve">
<g>
	<path d="M125.752,151.904c0.304-12.704-1.382-29.982-7.669-36.27c-6.273-6.272-33.485-11.03-55.656-13.137
		c4.923,14.066,13.165,34.619,20.351,41.805c4.796,4.797,19.112,7.66,38.296,7.66C122.784,151.962,124.36,151.938,125.752,151.904z
		 M110.418,140.465c0,0-12.075,0.896-15.658-2.687c-3.583-3.583-7.277-15.664-7.277-15.664s16.662,1.004,20.245,4.587
		C111.311,130.285,110.418,140.465,110.418,140.465z"/>
	<path d="M171.248,151.904c1.391,0.035,2.968,0.058,4.677,0.058c19.184,0,33.5-2.863,38.296-7.66
		c7.197-7.196,15.434-27.743,20.354-41.805c-22.17,2.106-49.386,6.865-55.66,13.138
		C172.631,121.922,170.944,139.197,171.248,151.904z M189.273,126.701c3.583-3.583,20.245-4.587,20.245-4.587
		s-3.694,12.081-7.277,15.664c-3.583,3.584-15.658,2.687-15.658,2.687S185.689,130.285,189.273,126.701z"/>
	<path d="M139.347,68.636l0.278,7.215l6.949-1.965c0.629-0.178,1.279-0.267,1.927-0.267s1.297,0.089,1.927,0.267l6.949,1.965
		l0.278-7.215c0.05-1.309,0.463-2.578,1.192-3.667l4.015-5.999l-6.777-2.495c-1.228-0.452-2.307-1.237-3.117-2.265l-4.466-5.673
		l-4.466,5.673c-0.81,1.028-1.889,1.813-3.117,2.265l-6.777,2.495l4.015,5.999C138.883,66.059,139.296,67.327,139.347,68.636z"/>
	<path d="M235.59,24.277C213.41,8.395,183.294,0,148.5,0S83.59,8.395,61.41,24.277C36.642,42.013,23.55,67.898,23.55,99.136
		c0,60.777,12.213,111.33,35.317,146.196C80.946,278.65,112.779,297,148.5,297s67.554-18.35,89.633-51.668
		c23.104-34.866,35.317-85.419,35.317-146.196C273.45,67.898,260.358,42.013,235.59,24.277z M116.516,53.244
		c0.671-2.065,2.252-3.707,4.288-4.458l13.339-4.91l8.792-11.169c1.343-1.705,3.394-2.701,5.565-2.701s4.222,0.996,5.565,2.701
		l8.792,11.169l13.339,4.91c2.036,0.751,3.617,2.393,4.288,4.458c0.671,2.065,0.358,4.323-0.85,6.128l-7.905,11.812l-0.547,14.203
		c-0.084,2.17-1.158,4.181-2.915,5.457c-1.223,0.889-2.684,1.353-4.163,1.353c-0.645,0-1.293-0.088-1.927-0.267L148.5,88.061
		l-13.678,3.868c-2.085,0.59-4.333,0.192-6.089-1.086c-1.757-1.276-2.831-3.287-2.915-5.457l-0.547-14.203l-7.905-11.812
		C116.158,57.567,115.845,55.309,116.516,53.244z M72.761,154.318c-13.377-13.378-25.801-53.153-27.174-57.645
		c-0.678-2.219-0.226-4.63,1.209-6.452c1.437-1.824,3.684-2.833,5.989-2.687c10.169,0.613,61.592,4.365,75.312,18.084
		c14.435,14.436,11.783,49.723,11.433,53.699c-0.303,3.458-3.069,6.186-6.531,6.442c-0.203,0.016-5.03,0.368-11.927,0.368
		C96.852,166.126,80.598,162.154,72.761,154.318z M164.523,183.661c3.912,0,7.082,3.171,7.082,7.082
		c0,3.912-3.171,7.082-7.082,7.082h-32.046c-3.912,0-7.082-3.17-7.082-7.082c0-3.912,3.171-7.082,7.082-7.082H164.523z
		 M148.5,252.207c-23.405,0-39.129-8.602-39.129-21.406c0-12.804,15.724-21.406,39.129-21.406s39.129,8.602,39.129,21.406
		C187.629,243.605,171.904,252.207,148.5,252.207z M224.238,154.318c-7.836,7.835-24.09,11.808-48.31,11.808
		c-0.001,0-0.001,0-0.003,0c-6.896,0-11.724-0.352-11.927-0.368c-3.461-0.256-6.227-2.984-6.531-6.442
		c-0.35-3.976-3.002-39.262,11.432-53.698c13.721-13.72,65.144-17.472,75.313-18.085c2.306-0.145,4.553,0.864,5.989,2.687
		c1.436,1.822,1.887,4.233,1.209,6.452C250.04,101.165,237.615,140.941,224.238,154.318z"/>
	<path d="M148.5,223.56c-18.449,0-24.965,5.767-24.965,7.241c0,1.474,6.516,7.241,24.965,7.241s24.965-5.767,24.965-7.241
		C173.465,229.327,166.949,223.56,148.5,223.56z"/>
</g>
<g>
</g>
<g>
</g>
<g>
</g>
<g>
</g>
<g>
</g>
<g>
</g>
<g>
</g>
<g>
</g>
<g>
</g>
<g>
</g>
<g>
</g>
<g>
</g>
<g>
</g>
<g>
</g>
<g>
</g>
</svg>
