<?xml version="1.0" encoding="iso-8859-1"?>
<!-- Generator: Adobe Illustrator 18.0.0, SVG Export Plug-In . SVG Version: 6.00 Build 0)  -->
<!DOCTYPE svg PUBLIC "-//W3C//DTD SVG 1.1//EN" "http://www.w3.org/Graphics/SVG/1.1/DTD/svg11.dtd">
<svg version="1.1" id="Capa_1" xmlns="http://www.w3.org/2000/svg" xmlns:xlink="http://www.w3.org/1999/xlink" x="0px" y="0px"
	 viewBox="0 0 297 297" style="enable-background:new 0 0 297 297;" xml:space="preserve">
<g>
	<path d="M209.773,143.206C202.481,105.72,181,48.411,148.5,48.411s-53.981,57.309-61.273,94.795H209.773z"/>
	<path d="M263.321,225.326c-1.218,0.731-2.56,1.078-3.884,1.078c-1.357,0-2.691-0.375-3.862-1.068
		c-0.01-0.005-0.027-0.004-0.036-0.01l-51.574-30.944l-51.574,30.944c-0.015,0.009-0.03,0.008-0.045,0.016
		c-1.169,0.69-2.5,1.063-3.853,1.063c-1.325,0-2.666-0.348-3.884-1.078l-51.574-30.944l-51.574,30.944
		c-1.218,0.731-2.559,1.078-3.884,1.078c-1.338,0-2.655-0.363-3.813-1.037c-0.028-0.014-0.046-0.018-0.084-0.041L1.715,206.147
		c6.161,24.36,28.26,42.442,54.508,42.442h184.554c26.248,0,48.347-18.082,54.509-42.442L263.321,225.326z"/>
	<path d="M10.085,159.212c-2.675,0-5.239,1.063-7.131,2.954C1.063,164.057,0,166.622,0,169.296v18.181l37.57,22.542l51.574-30.944
		c0.002-0.001,0.004-0.002,0.006-0.003c2.317-1.384,5.3-1.482,7.776,0.003l51.574,30.944l51.574-30.944
		c0.003-0.002,0.005-0.002,0.008-0.004c2.317-1.383,5.299-1.481,7.774,0.004l51.574,30.944L297,187.477v-18.18
		c0-5.569-4.515-10.084-10.085-10.084L10.085,159.212z"/>
</g>
<g>
</g>
<g>
</g>
<g>
</g>
<g>
</g>
<g>
</g>
<g>
</g>
<g>
</g>
<g>
</g>
<g>
</g>
<g>
</g>
<g>
</g>
<g>
</g>
<g>
</g>
<g>
</g>
<g>
</g>
</svg>
