<?xml version="1.0" encoding="iso-8859-1"?>
<!-- Generator: Adobe Illustrator 18.0.0, SVG Export Plug-In . SVG Version: 6.00 Build 0)  -->
<!DOCTYPE svg PUBLIC "-//W3C//DTD SVG 1.1//EN" "http://www.w3.org/Graphics/SVG/1.1/DTD/svg11.dtd">
<svg version="1.1" id="Capa_1" xmlns="http://www.w3.org/2000/svg" xmlns:xlink="http://www.w3.org/1999/xlink" x="0px" y="0px"
	 viewBox="0 0 297 297" style="enable-background:new 0 0 297 297;" xml:space="preserve">
<g>
	<path d="M286.898,70.209H10.102C4.523,70.209,0,74.732,0,80.311v46.133c0,5.579,4.523,10.102,10.102,10.102h276.796
		c5.579,0,10.102-4.523,10.102-10.102V80.311C297,74.732,292.477,70.209,286.898,70.209z"/>
	<path d="M158.996,56.066h53.656c2.75,0,5-2.25,5-5V35.694c0-5.579-4.523-10.102-10.102-10.102h-43.452
		c-5.579,0-10.102,4.523-10.102,10.102v15.373C153.996,53.816,156.246,56.066,158.996,56.066z"/>
	<path d="M84.348,56.066h53.656c2.75,0,5-2.25,5-5V35.694c0-5.579-4.523-10.102-10.102-10.102H89.45
		c-5.579,0-10.102,4.523-10.102,10.102v15.373C79.348,53.816,81.598,56.066,84.348,56.066z"/>
	<path d="M233.643,56.066h53.656c2.75,0,5-2.25,5-5V35.694c0-5.579-4.523-10.102-10.102-10.102h-43.452
		c-5.579,0-10.102,4.523-10.102,10.102v15.373C228.643,53.816,230.893,56.066,233.643,56.066z"/>
	<path d="M9.702,56.066h53.656c2.75,0,5-2.25,5-5V35.694c0-5.579-4.523-10.102-10.102-10.102H14.804
		c-5.579,0-10.102,4.523-10.102,10.102v15.373C4.702,53.816,6.952,56.066,9.702,56.066z"/>
	<path d="M63.357,150.689H9.702c-2.75,0-5,2.25-5,5v105.617c0,5.579,4.523,10.102,10.102,10.102h43.452
		c5.579,0,10.102-4.523,10.102-10.102V155.689C68.357,152.939,66.107,150.689,63.357,150.689z"/>
	<path d="M212.652,150.689h-53.656c-2.75,0-5,2.25-5,5v60.494c0,5.579,4.523,10.102,10.102,10.102h43.452
		c5.579,0,10.102-4.523,10.102-10.102v-60.494C217.652,152.939,215.402,150.689,212.652,150.689z"/>
	<path d="M287.298,150.689h-53.656c-2.75,0-5,2.25-5,5v30.413c0,5.579,4.523,10.102,10.102,10.102h43.452
		c5.579,0,10.102-4.523,10.102-10.102v-30.413C292.298,152.939,290.048,150.689,287.298,150.689z"/>
	<path d="M138.004,150.689H84.348c-2.75,0-5,2.25-5,5v90.576c0,5.579,4.523,10.102,10.102,10.102h43.452
		c5.579,0,10.102-4.523,10.102-10.102v-90.576C143.004,152.939,140.754,150.689,138.004,150.689z"/>
</g>
<g>
</g>
<g>
</g>
<g>
</g>
<g>
</g>
<g>
</g>
<g>
</g>
<g>
</g>
<g>
</g>
<g>
</g>
<g>
</g>
<g>
</g>
<g>
</g>
<g>
</g>
<g>
</g>
<g>
</g>
</svg>
