<?xml version="1.0" encoding="iso-8859-1"?>
<!-- Generator: Adobe Illustrator 18.0.0, SVG Export Plug-In . SVG Version: 6.00 Build 0)  -->
<!DOCTYPE svg PUBLIC "-//W3C//DTD SVG 1.1//EN" "http://www.w3.org/Graphics/SVG/1.1/DTD/svg11.dtd">
<svg version="1.1" id="Capa_1" xmlns="http://www.w3.org/2000/svg" xmlns:xlink="http://www.w3.org/1999/xlink" x="0px" y="0px"
	 viewBox="0 0 297 297" style="enable-background:new 0 0 297 297;" xml:space="preserve">
<g>
	<path d="M216.454,131.04h-18.352v97.739l14.367,57.468c0.34,1.364,1.561,2.316,2.967,2.316h37.723c1.687,0,3.059-1.372,3.059-3.059
		V170.803C256.217,148.878,238.38,131.04,216.454,131.04z"/>
	<path d="M113.139,79.298c0-23.401-14.639-35.798-28.208-37.724c-27.213-3.863-36.34,5.691-48.122,16.023
		c-2.454,2.152-5.127,4.489-8.288,7.007c7.506,11.28,19.848,35.426,11.129,62.743c0.858,0.497,1.649,1.033,2.37,1.62
		c6.208,5.052,6.208,12.022,6.208,17.622v138.576c0,1.687,1.372,3.059,3.059,3.059H87.99c1.405,0,2.625-0.951,2.966-2.312
		l14.712-58.522h12.908V116.775c-3.746-5.351-6.003-11.841-6.113-18.835l-0.006-0.37l0.033-0.368
		C112.642,95.472,113.139,89.069,113.139,79.298z M79.952,82.815c-1.326,1.325-3.171,2.09-5.047,2.09
		c-1.876,0-3.722-0.765-5.047-2.09c-1.325-1.326-2.09-3.171-2.09-5.047s0.765-3.722,2.09-5.047c1.325-1.325,3.171-2.09,5.047-2.09
		c1.876,0,3.721,0.765,5.047,2.09c1.325,1.325,2.09,3.171,2.09,5.047S81.278,81.479,79.952,82.815z"/>
	<path d="M145.595,131.04c-4.504,0-8.812-0.932-12.745-2.616v98.964h50.978V131.04H145.595z"/>
	<path d="M126.584,69.583c10.861-7.224,26.827-20.627,41.572-45.796c2.099-3.581,1.816-8.078-0.715-11.368
		c-2.531-3.292-6.804-4.72-10.804-3.61c-1.993,0.552-37.952,10.526-66.233,19.116C105.12,31.106,122.641,46.445,126.584,69.583z"/>
	<path d="M273.55,140.726h-12.226c4.066,6.046,6.93,12.958,8.281,20.391h3.945c1.658,0,3.059,1.401,3.059,3.059v37.469
		c0,5.631,4.565,10.196,10.196,10.196S297,207.276,297,201.645v-37.469C297,151.246,286.481,140.726,273.55,140.726z"/>
	<path d="M16.902,72.938c-3.902,2.52-8.395,5.18-13.697,7.99c-3.194,1.694-3.356,6.604-3.141,10.693
		c0.221,4.201,1.043,9.326,2.313,14.434c2.802,11.266,6.108,16.743,10.108,16.743c5.177,0,9.596,0.214,13.405,0.656
		C32.948,101.994,22.996,82.259,16.902,72.938z"/>
</g>
<g>
</g>
<g>
</g>
<g>
</g>
<g>
</g>
<g>
</g>
<g>
</g>
<g>
</g>
<g>
</g>
<g>
</g>
<g>
</g>
<g>
</g>
<g>
</g>
<g>
</g>
<g>
</g>
<g>
</g>
</svg>
