<?xml version="1.0" encoding="iso-8859-1"?>
<!-- Generator: Adobe Illustrator 18.0.0, SVG Export Plug-In . SVG Version: 6.00 Build 0)  -->
<!DOCTYPE svg PUBLIC "-//W3C//DTD SVG 1.1//EN" "http://www.w3.org/Graphics/SVG/1.1/DTD/svg11.dtd">
<svg version="1.1" id="Capa_1" xmlns="http://www.w3.org/2000/svg" xmlns:xlink="http://www.w3.org/1999/xlink" x="0px" y="0px"
	 viewBox="0 0 297 297" style="enable-background:new 0 0 297 297;" xml:space="preserve">
<g>
	<path d="M1.64,164.618c-1.854,2.831-2.157,6.404-0.804,9.507c25.613,58.774,83.575,96.751,147.664,96.751
		s122.052-37.976,147.664-96.751c1.352-3.102,1.049-6.676-0.805-9.507c-1.854-2.831-5.01-4.536-8.393-4.536H10.034
		C6.65,160.083,3.494,161.788,1.64,164.618z"/>
	<path d="M87.312,84.887c-1.463,3.273-1.069,7.076,1.033,9.98l33.381,46.094h76.31l26.933-60.242
		c1.463-3.272,1.069-7.076-1.033-9.98c-1.903-2.627-4.944-4.147-8.144-4.147c-0.338,0-0.677,0.017-1.017,0.051L95.438,79.001
		C91.872,79.37,88.775,81.614,87.312,84.887z M156.785,102.156c1.877-1.866,4.465-2.939,7.104-2.939
		c2.629,0,5.218,1.074,7.094,2.939c1.866,1.867,2.94,4.456,2.94,7.094c0,2.639-1.074,5.228-2.94,7.094
		c-1.876,1.866-4.455,2.94-7.094,2.94c-2.648,0-5.227-1.074-7.104-2.94c-1.867-1.867-2.93-4.455-2.93-7.094
		C153.855,106.611,154.918,104.023,156.785,102.156z"/>
	<path d="M22.822,133.145l29.167,7.815h56.109l-28.694-39.621c-4.399-6.077-5.23-14.107-2.169-20.956
		c3.062-6.851,9.601-11.587,17.065-12.36l36.329-3.762l-8.226-30.697c-0.928-3.463-3.632-6.167-7.095-7.095
		c-3.465-0.93-7.157,0.063-9.692,2.597l-87.294,87.294c-2.535,2.535-3.524,6.23-2.597,9.692
		C16.655,129.513,19.359,132.217,22.822,133.145z M53.106,105.999c1.867-1.867,4.455-2.94,7.094-2.94
		c2.639,0,5.228,1.073,7.093,2.94c1.876,1.867,2.941,4.455,2.941,7.094c0,2.639-1.064,5.228-2.941,7.093
		c-1.866,1.867-4.455,2.94-7.093,2.94c-2.639,0-5.228-1.074-7.094-2.94c-1.867-1.866-2.94-4.454-2.94-7.093
		C50.166,110.454,51.239,107.866,53.106,105.999z"/>
</g>
<g>
</g>
<g>
</g>
<g>
</g>
<g>
</g>
<g>
</g>
<g>
</g>
<g>
</g>
<g>
</g>
<g>
</g>
<g>
</g>
<g>
</g>
<g>
</g>
<g>
</g>
<g>
</g>
<g>
</g>
</svg>
